<mxfile host="h25">
  <diagram id="gau" name="In progress">
    <mxGraphModel dx="0" dy="0" background="#FFFAFA" grid="0" gridSize="10" guides="1" tooltips="1" connect="1" arrows="1" fold="1" page="1" pageScale="1" pageWidth="1169" pageHeight="827" math="0" shadow="0">
      <root>
        <mxCell id="page_root_gau" parent="gau"/>
        <mxCell id="node_root_gau" parent="page_root_gau"/>
        <mxCell id="gau-1" value="DrawIO DSL" style="whiteSpace=wrap;html=1;rounded=1;glass=1;fontColor=#1F2D3D;text;fontSize=28;fontStyle=1;fillColor=none" vertex="1" parent="node_root_gau">
          <mxGeometry x="300" y="0" width="400" height="80" as="geometry"/>
        </mxCell>
        <mxCell id="gau-3" value="use a domain model generator to build base classes and unit tests" style="whiteSpace=wrap;html=1;rounded=1;glass=1;fillColor=#d5e8d4;strokeColor=#82b366;fontColor=#333333" vertex="1" parent="node_root_gau">
          <mxGeometry x="10" y="10" width="300" height="60" as="geometry"/>
        </mxCell>
        <mxCell id="gau-4" value="restart the application so that I can figure out the issues with RuboCop" style="whiteSpace=wrap;html=1;rounded=1;glass=1;fillColor=#d5e8d4;strokeColor=#82b366;fontColor=#333333" vertex="1" parent="node_root_gau">
          <mxGeometry x="330" y="10" width="300" height="60" as="geometry"/>
        </mxCell>
        <mxCell id="gau-5" value="build a sample DSL to test how this can be used" style="whiteSpace=wrap;html=1;rounded=1;glass=1;fillColor=#d5e8d4;strokeColor=#82b366;fontColor=#333333" vertex="1" parent="node_root_gau">
          <mxGeometry x="650" y="10" width="300" height="60" as="geometry"/>
        </mxCell>
        <mxCell id="gau-6" value="build a JSON builder proof of concept based on the rails XML builder" style="whiteSpace=wrap;html=1;rounded=1;glass=1;fillColor=#d5e8d4;strokeColor=#82b366;fontColor=#333333" vertex="1" parent="node_root_gau">
          <mxGeometry x="10" y="90" width="300" height="60" as="geometry"/>
        </mxCell>
      </root>
    </mxGraphModel>
  </diagram>
  <diagram id="C4r" name="To Do">
    <mxGraphModel dx="0" dy="0" background="#FFFAFA" grid="0" gridSize="10" guides="1" tooltips="1" connect="1" arrows="1" fold="1" page="1" pageScale="1" pageWidth="1169" pageHeight="827" math="0" shadow="0">
      <root>
        <mxCell id="page_root_C4r" parent="C4r"/>
        <mxCell id="node_root_C4r" parent="page_root_C4r"/>
      </root>
    </mxGraphModel>
  </diagram>
  <diagram id="mpH" name="Done">
    <mxGraphModel dx="0" dy="0" background="#FFFAFA" grid="0" gridSize="10" guides="1" tooltips="1" connect="1" arrows="1" fold="1" page="1" pageScale="1" pageWidth="1169" pageHeight="827" math="0" shadow="0">
      <root>
        <mxCell id="page_root_mpH" parent="mpH"/>
        <mxCell id="node_root_mpH" parent="page_root_mpH"/>
        <mxCell id="mpH-1" value="build a or adapt the existing RubyDsl so that it can write classes and specs based on tailwind domain model" style="whiteSpace=wrap;html=1;rounded=1;glass=1;fillColor=#f8cecc;strokeColor=#b85450;fontColor=#333333" vertex="1" parent="node_root_mpH">
          <mxGeometry x="0" y="0" width="300" height="60" as="geometry"/>
        </mxCell>
      </root>
    </mxGraphModel>
  </diagram>
</mxfile>